<?xml version="1.0" standalone="no"?><!-- Generator: Gravit.io --><svg xmlns="http://www.w3.org/2000/svg" xmlns:xlink="http://www.w3.org/1999/xlink" style="isolation:isolate" viewBox="3.7222586828366957 3.7222586828366957 592.5554826343266 592.5554826343266" width="592.5554826343266" height="592.5554826343266"><g opacity="0.795"><rect x="90.50000000000011" y="90.50000000000011" width="418.9999999999998" height="418.9999999999998" transform="matrix(0.7071067811865477,-0.7071067811865475,0.7071067811865475,0.7071067811865477,-124.26406871192853,299.99999999999994)" fill="rgb(33,39,46)"/></g><rect x="70.35752536730189" y="213.22609231678692" width="358.2997987927564" height="72.56266489378683" transform="matrix(0.7071067811865476,-0.7071067811865475,0.7071067811865475,0.7071067811865476,-103.34935924990111,249.50742476368012)" fill="rgb(83,223,131)"/><rect x="19.826768095236673" y="162.69533504472167" width="358.2997987927564" height="72.5626648937868" transform="matrix(0.7071067811865476,-0.7071067811865475,0.7071067811865475,0.7071067811865476,-82.41883427082877,198.9766674916149)" fill="rgb(26,188,156)"/><rect x="221.8734331120067" y="364.74200006149175" width="358.29979879275635" height="72.56266489378686" transform="matrix(0.7071067811865476,-0.7071067811865475,0.7071067811865475,0.7071067811865476,-166.10930315302846,401.0233325083849)" fill="rgb(248,248,240)"/><rect x="171.6310834029677" y="314.49965035245276" width="358.29979879275635" height="72.56266489378686" transform="matrix(0.7071067811865476,-0.7071067811865475,0.7071067811865475,0.7071067811865476,-145.29824049805268,350.7809827993459)" fill="rgb(231,76,60)"/><rect x="120.88828263936722" y="263.7568495888522" width="358.2997987927564" height="72.56266489378686" transform="matrix(0.7071067811865476,-0.7071067811865475,0.7071067811865475,0.7071067811865476,-124.2798842289734,300.0381820357454)" fill="rgb(156,210,48)"/><rect x="-45.97160876900358" y="148.02839123099648" width="418.9999999999999" height="30.999999999999773" transform="matrix(0.7071067811865476,-0.7071067811865475,0.7071067811865475,0.7071067811865476,-67.7356774809322,163.52839123099633)" fill="rgb(33,39,46)"/><rect x="227.32516215959703" y="421.32516215959697" width="418.99999999999983" height="30.999999999999773" transform="matrix(0.7071067811865476,-0.7071067811865475,0.7071067811865475,0.7071067811865476,-180.93890655233156,436.8251621595969)" fill="rgb(33,39,46)"/><rect x="227.3251621595969" y="147.67483784040334" width="418.99999999999994" height="30.999999999999773" transform="matrix(-0.7071067811865475,-0.7071067811865476,0.7071067811865476,-0.7071067811865475,630.3251621595966,587.4389065523318)" fill="rgb(33,39,46)"/><rect x="-46.32516215959703" y="421.32516215959714" width="418.9999999999999" height="30.999999999999773" transform="matrix(-0.7071067811865475,-0.7071067811865476,0.7071067811865476,-0.7071067811865475,-30.325162159597255,861.0892308715254)" fill="rgb(33,39,46)"/></svg>